<?xml version="1.0" standalone="no"?>
<!DOCTYPE svg PUBLIC "-//W3C//DTD SVG 20010904//EN"
 "http://www.w3.org/TR/2001/REC-SVG-20010904/DTD/svg10.dtd">
<svg version="1.0" xmlns="http://www.w3.org/2000/svg"
 width="338.000000pt" height="338.000000pt" viewBox="0 0 338.000000 338.000000"
 preserveAspectRatio="xMidYMid meet">
<metadata>
Created by potrace 1.14, written by Peter Selinger 2001-2017
</metadata>
<g transform="translate(0.000000,338.000000) scale(0.100000,-0.100000)"
fill="#000000" stroke="none">
<path d="M0 1690 l0 -1690 1690 0 1690 0 0 1690 0 1690 -1690 0 -1690 0 0
-1690z m1002 341 c16 -6 71 -87 178 -265 85 -140 155 -254 156 -253 2 1 71
117 154 257 84 140 157 258 163 262 6 3 42 6 81 5 l71 -2 3 -422 2 -423 -89 0
-89 0 -4 58 c-2 31 -3 141 -3 244 0 104 -2 188 -5 188 -3 0 -58 -90 -123 -200
l-119 -200 -46 0 -47 0 -120 198 -120 197 -3 -242 -2 -243 -93 0 -92 0 0 420
c0 364 2 420 15 424 29 7 109 6 132 -3z m1136 0 l39 -1 153 -255 c84 -140 156
-255 161 -255 4 0 71 109 150 243 78 133 147 248 154 255 12 14 147 23 159 11
3 -3 6 -192 6 -420 l1 -414 -91 -3 -90 -3 0 253 0 253 -123 -208 -122 -207
-49 2 -48 3 -117 192 c-64 106 -119 193 -122 193 -4 0 -6 -108 -5 -240 l1
-240 -92 0 -93 0 0 419 c0 463 -5 428 62 425 15 -1 45 -2 66 -3z m-1488 -421
l0 -420 -95 0 -95 0 0 420 0 420 95 0 95 0 0 -420z"/>
</g>
</svg>
